<svg width="393" height="159" fill="none" xmlns="http://www.w3.org/2000/svg"><path d="M65.647 102.2c-5.25 6.703-13.394 11.008-22.57 11.008h-.097c-9.224 0-17.418-4.403-22.619-11.154L43.03 79.549 65.647 102.2z" fill="#F90"/><path fill-rule="evenodd" clip-rule="evenodd" d="M200.572 12.867c0 2.788 1.031 5.235 3.042 7.24 2.061 2.006 4.465 3.034 7.262 3.034 2.796 0 5.249-1.028 7.261-3.034 2.012-2.005 3.042-4.452 3.042-7.24 0-2.789-1.03-5.235-3.042-7.24-2.012-2.007-4.465-3.034-7.261-3.034-2.797 0-5.25 1.027-7.262 3.033-2.011 2.006-3.042 4.452-3.042 7.24zm2.355 101.613c0 2.25.736 4.158 2.257 5.675 1.521 1.517 3.435 2.251 5.692 2.251 2.404 0 4.317-.734 5.789-2.251 1.472-1.468 2.208-3.376 2.208-5.675V45.01c0-2.398-.736-4.306-2.208-5.774-1.472-1.467-3.385-2.201-5.789-2.201-2.257 0-4.171.734-5.692 2.201-1.521 1.468-2.257 3.376-2.257 5.773v69.471z" fill="#333"/><path d="M305.618 115.85c0 2.299-.932 4.207-2.797 5.773-1.57 1.272-3.238 1.859-5.004 1.859-2.306 0-4.171-.93-5.643-2.789l-29.732-36.692-7.85 6.85v23.874c0 2.299-.687 4.158-2.11 5.528-1.423 1.419-3.287 2.104-5.544 2.104-2.306 0-4.171-.685-5.545-2.104-1.422-1.419-2.109-3.229-2.109-5.528V8.072c0-2.3.687-4.158 2.109-5.528 1.423-1.419 3.239-2.104 5.545-2.104s4.17.685 5.544 2.104c1.423 1.419 2.11 3.278 2.11 5.528v63.551l38.024-33.854c1.374-1.37 2.993-2.006 4.857-2.006 2.208 0 3.974.831 5.348 2.495 1.374 1.37 2.012 2.984 2.012 4.843 0 2.202-.834 3.963-2.502 5.333L273.53 74.02l30.371 37.181c1.128 1.223 1.717 2.789 1.717 4.648z" fill="#333"/><path fill-rule="evenodd" clip-rule="evenodd" d="M372.099 41.976c6.525 3.67 11.628 8.806 15.357 15.362 3.679 6.556 5.544 14.04 5.544 22.505 0 8.316-1.865 15.753-5.495 22.308-3.631 6.556-8.734 11.693-15.259 15.362-6.526 3.669-13.983 5.529-22.324 5.529-8.341 0-15.799-1.811-22.373-5.529-6.575-3.669-11.726-8.806-15.357-15.362-3.68-6.555-5.495-13.992-5.495-22.308 0-8.464 1.864-15.95 5.495-22.505 3.68-6.556 8.782-11.644 15.357-15.362 6.574-3.67 14.032-5.528 22.373-5.528 8.243 0 15.651 1.859 22.177 5.528zm-52.548 37.72c0 16.731 13.591 30.234 30.322 30.234s30.272-13.503 30.321-30.234c0-16.732-13.59-30.235-30.321-30.235-16.78 0-30.322 13.552-30.322 30.235zM166.031 41.976c6.526 3.67 11.628 8.806 15.357 15.362 3.68 6.556 5.544 14.04 5.495 22.505 0 8.316-1.864 15.753-5.495 22.308-3.631 6.556-8.733 11.693-15.259 15.362-6.525 3.669-13.983 5.529-22.324 5.529-8.34 0-15.798-1.811-22.373-5.529a36.027 36.027 0 01-4.857-3.18v36.693c0 2.397-.736 4.305-2.208 5.772-1.472 1.468-3.385 2.202-5.789 2.202-2.257 0-4.171-.734-5.692-2.202-1.521-1.467-2.257-3.375-2.257-5.772V79.842c0-8.463 1.865-15.948 5.496-22.504 3.679-6.556 8.782-11.644 15.356-15.362 5.643-3.18 12.021-4.99 19.037-5.43h.393a51.581 51.581 0 012.796-.098h.147c8.243 0 15.652 1.859 22.177 5.528zm-52.547 37.72c0 16.731 13.591 30.234 30.321 30.234 16.731 0 30.322-13.503 30.322-30.234 0-16.732-13.591-30.235-30.322-30.235-16.779 0-30.321 13.552-30.321 30.235zM65.058 42.123c6.526 3.816 11.678 9.002 15.504 15.606 3.828 6.605 5.692 13.943 5.643 22.064v34.834c0 2.25-.736 4.158-2.257 5.675-1.472 1.516-3.385 2.25-5.691 2.25-2.257 0-4.17-.734-5.692-2.25-1.52-1.468-2.257-3.376-2.257-5.675v-.294c-1.472 1.174-3.09 2.202-4.759 3.18-6.525 3.669-13.983 5.529-22.324 5.529-8.34 0-15.798-1.811-22.373-5.529-6.575-3.669-11.726-8.806-15.357-15.362-.024-.024-.037-.061-.049-.097-.012-.037-.024-.074-.049-.098l-.147-.049a45.29 45.29 0 01-3.386-8.513 84.843 84.843 0 00-.22-.856c-.074-.281-.148-.563-.221-.856-.025-.123-.05-.233-.074-.343-.024-.11-.049-.22-.073-.342-.197-.734-.344-1.517-.491-2.3 0-.048-.012-.097-.025-.146-.012-.05-.024-.098-.024-.147a49.003 49.003 0 01-.393-2.642v-.098c-.098-.93-.196-1.859-.245-2.837v-.05A60.61 60.61 0 010 79.794c0-8.12 1.864-15.46 5.642-22.064 3.778-6.604 8.979-11.79 15.603-15.606 6.623-3.767 13.934-5.675 21.98-5.675 8.047 0 15.308 1.859 21.833 5.675zM12.806 79.696c0 16.731 13.59 30.234 30.321 30.234 16.73 0 30.321-13.503 30.321-30.234 0-16.732-13.541-30.235-30.321-30.235S12.806 63.013 12.806 79.696z" fill="#333"/></svg>
